# xmcd
#
# Track frame offsets: 
#        150
#        22703
#        39235
#        58572
#        77452
#        96244
#        126311
#        148256
#        169563
#        194020
#        216000
#        235964
#
# Disc length: 3448 seconds
#
# Revision: 0
# Processed by: cddbd v1.5.2PL0 Copyright (c) Steve Scherf et al.
# Submitted via: ExactAudioCopy v1.2
#
DISCID=9d0d760c
DTITLE=Billy Thompson - B T
DYEAR=2018
DGENRE=Blues
TTITLE0=Burn It Down Bernadette
TTITLE1=Phoine
TTITLE2=Black Rain
TTITLE3=Silent Warrior
TTITLE4=Mud Island Woman
TTITLE5=Stranger
TTITLE6=That Devil
TTITLE7=In the Back of Beyond
TTITLE8=Children of the Sun
TTITLE9=Hourglass
TTITLE10=Long Train Running
TTITLE11=Reason for Goin' Fishin'
EXTD=
EXTT0=
EXTT1=
EXTT2=
EXTT3=
EXTT4=
EXTT5=
EXTT6=
EXTT7=
EXTT8=
EXTT9=
EXTT10=
EXTT11=
PLAYORDER=
